<?xml version="1.0" standalone="no"?>
<!DOCTYPE svg PUBLIC "-//W3C//DTD SVG 20010904//EN"
 "http://www.w3.org/TR/2001/REC-SVG-20010904/DTD/svg10.dtd">
<svg version="1.0" xmlns="http://www.w3.org/2000/svg"
 width="212.000000pt" height="237.000000pt" viewBox="0 0 212.000000 237.000000"
 preserveAspectRatio="xMidYMid meet">

<g transform="translate(0.000000,237.000000) scale(0.100000,-0.100000)"
fill="#000000" stroke="none">
<path d="M897 2285 c-66 -24 -170 -84 -229 -130 -123 -97 -237 -275 -276 -432
-10 -40 -21 -75 -24 -79 -3 -3 -14 27 -23 67 -25 111 -21 246 11 374 11 45
-37 -56 -63 -130 -23 -70 -27 -95 -26 -205 0 -96 5 -141 20 -192 11 -38 18
-68 14 -68 -11 0 -89 144 -111 207 -31 85 -44 71 -37 -37 10 -154 78 -311 187
-432 28 -32 48 -58 43 -58 -17 0 -110 60 -171 110 l-63 51 23 -43 c13 -24 61
-81 108 -128 97 -98 183 -147 318 -181 111 -28 148 -21 57 10 -86 29 -225 98
-225 111 0 6 1 10 3 10 9 0 125 -22 141 -27 10 -3 -16 28 -59 68 -68 65 -212
229 -201 229 2 0 29 -10 60 -21 31 -12 59 -19 62 -16 3 3 -6 21 -20 39 -14 19
-32 51 -41 72 -34 81 -55 136 -51 136 2 0 21 -29 40 -65 20 -35 40 -66 45 -69
4 -3 11 43 14 102 6 124 34 224 91 326 35 62 70 104 51 60 -47 -107 -58 -162
-59 -274 0 -65 5 -139 13 -170 22 -88 83 -220 140 -303 72 -104 90 -115 42
-26 -22 41 -57 124 -77 184 -33 99 -38 123 -42 240 -4 111 -1 142 16 207 51
185 157 342 303 453 63 46 62 54 -4 30z"/>
<path d="M1230 2283 c173 -126 299 -300 345 -478 51 -195 15 -424 -101 -645
-50 -96 -26 -77 53 43 98 149 144 294 144 452 0 94 -15 170 -55 280 -16 43 34
-31 68 -101 44 -89 64 -172 74 -298 l7 -98 43 73 c24 41 40 63 36 49 -18 -64
-47 -129 -78 -178 l-35 -52 27 6 c15 3 44 14 65 24 20 10 37 14 37 11 0 -15
-170 -209 -220 -253 l-53 -45 64 13 c75 16 99 17 99 5 0 -11 -114 -67 -220
-107 -97 -38 -76 -45 43 -15 170 44 302 131 395 260 28 40 52 77 52 82 0 5
-31 -17 -69 -48 -63 -53 -150 -107 -159 -98 -2 2 13 21 33 42 128 133 198 305
193 471 -3 85 -3 86 -15 47 -18 -58 -120 -252 -128 -243 -2 2 6 37 16 78 38
145 24 331 -36 465 -28 65 -41 70 -23 9 25 -84 8 -394 -21 -394 -4 0 -13 25
-20 56 -54 238 -219 444 -442 548 -52 24 -105 47 -119 50 l-25 7 25 -18z"/>
<path d="M983 1415 l-28 -25 28 6 c20 5 38 -1 67 -20 22 -14 40 -30 40 -35 0
-19 -43 -45 -75 -45 -22 0 -35 -5 -35 -13 0 -9 17 -13 55 -13 l55 0 -20 -40
c-11 -22 -33 -55 -50 -73 -52 -59 -75 -212 -45 -302 l13 -40 1 72 c2 134 40
243 121 350 l38 51 -25 11 c-21 10 -23 14 -13 27 11 12 9 19 -10 39 -30 32
-18 32 36 0 64 -37 69 -54 44 -128 -14 -40 -19 -72 -15 -94 8 -46 21 -41 17 6
-7 75 36 119 108 109 29 -4 29 -4 -19 42 -82 78 -188 140 -242 140 -10 0 -31
-11 -46 -25z"/>
<path d="M430 964 c0 -5 14 -26 30 -46 43 -52 123 -87 226 -99 48 -5 103 -18
125 -29 21 -11 39 -21 39 -23 0 -1 7 -20 15 -42 13 -36 15 -38 21 -17 l7 23
23 -22 c13 -12 32 -46 43 -74 41 -109 37 -243 -13 -451 -14 -54 -23 -100 -22
-101 5 -6 67 157 88 232 29 104 31 246 4 325 -33 96 -94 169 -188 224 -41 24
-47 25 -111 15 -101 -16 -212 15 -267 73 -11 12 -20 17 -20 12z"/>
<path d="M1715 935 c-66 -58 -171 -80 -280 -61 -33 6 -49 2 -86 -18 -70 -40
-133 -107 -170 -182 -33 -66 -34 -72 -34 -189 0 -97 5 -134 23 -195 25 -79 82
-223 87 -218 2 2 -10 53 -26 113 -36 132 -49 311 -30 393 13 52 63 142 80 142
5 0 12 -10 16 -22 6 -21 7 -21 15 9 15 66 57 89 181 103 120 14 193 52 251
133 25 35 22 34 -27 -8z"/>
<path d="M530 802 c0 -23 94 -111 170 -157 164 -101 175 -110 194 -149 11 -23
21 -70 24 -113 6 -97 22 -81 25 26 2 73 3 79 14 54 12 -27 12 -27 12 17 1 47
-25 117 -50 136 -8 6 -48 21 -89 34 -108 32 -211 81 -258 125 -23 20 -42 33
-42 27z"/>
<path d="M1606 769 c-37 -39 -140 -90 -248 -123 -94 -29 -131 -59 -142 -116
-3 -16 -9 -43 -12 -60 -7 -35 3 -40 16 -7 7 17 9 8 9 -39 1 -70 10 -124 21
-124 4 0 5 10 3 23 -6 31 22 161 42 191 9 13 60 50 113 80 104 59 178 114 212
159 31 39 20 53 -14 16z"/>
<path d="M627 634 c29 -40 103 -108 139 -127 34 -18 72 -57 108 -111 29 -43
34 -36 12 15 -29 67 -84 131 -133 155 -26 12 -70 40 -98 61 -49 38 -50 38 -28
7z"/>
<path d="M1525 624 c-22 -19 -65 -47 -95 -62 -42 -21 -64 -41 -97 -88 -23 -33
-45 -73 -48 -89 -6 -25 1 -19 39 32 31 40 65 72 100 92 49 27 114 91 137 134
13 23 10 22 -36 -19z"/>
<path d="M825 385 c41 -82 59 -167 52 -245 l-5 -55 18 55 c10 30 19 69 19 86
1 35 -54 152 -94 199 -21 26 -20 20 10 -40z"/>
<path d="M1347 398 c-53 -71 -102 -202 -80 -217 6 -3 15 -24 21 -46 10 -39 10
-38 11 31 1 77 28 178 61 232 11 17 18 32 15 32 -2 0 -15 -15 -28 -32z"/>
</g>
</svg>
